<?xml version="1.0" standalone="no"?>
<!DOCTYPE svg PUBLIC "-//W3C//DTD SVG 20010904//EN"
 "http://www.w3.org/TR/2001/REC-SVG-20010904/DTD/svg10.dtd">
<svg version="1.0" xmlns="http://www.w3.org/2000/svg"
 width="260.000000pt" height="260.000000pt" viewBox="0 0 260.000000 260.000000"
 preserveAspectRatio="xMidYMid meet">
<metadata>
Created by potrace 1.11, written by Peter Selinger 2001-2013
</metadata>
<g transform="translate(0.000000,260.000000) scale(0.100000,-0.100000)"
fill="#000000" stroke="none">
<path d="M0 1300 l0 -1300 1300 0 1300 0 0 1300 0 1300 -1300 0 -1300 0 0
-1300z m2201 724 c66 -20 138 -88 157 -150 26 -88 5 -191 -51 -253 -60 -65
-198 -91 -282 -52 -161 74 -190 303 -53 414 35 28 108 55 154 56 11 1 45 -6
75 -15z m-411 -98 c5 -14 10 -37 12 -53 3 -27 1 -28 -87 -48 l-90 -21 3 -34
c1 -19 4 -36 6 -38 2 -2 31 4 64 12 101 27 107 24 115 -54 2 -23 -4 -26 -73
-44 -41 -11 -76 -20 -77 -21 -7 -4 20 -75 28 -75 6 0 47 9 91 21 45 11 84 17
88 12 10 -10 31 -85 25 -91 -8 -8 -279 -73 -289 -69 -13 5 -123 443 -114 453
7 6 252 71 276 73 7 1 17 -10 22 -23z m-351 -113 c14 -53 10 -58 -51 -68 -21
-4 -38 -11 -38 -16 0 -6 18 -81 40 -169 22 -88 40 -166 40 -173 0 -15 -84 -42
-99 -32 -5 2 -28 83 -52 179 l-43 173 -48 -13 c-44 -11 -49 -11 -58 6 -5 10
-11 33 -12 52 l-3 33 140 37 c77 20 147 37 156 37 12 1 20 -13 28 -46z m-355
-91 c11 -53 11 -53 -96 -77 l-80 -19 6 -34 c3 -19 7 -36 8 -38 2 -2 37 6 78
16 41 11 78 16 81 12 12 -13 29 -86 21 -93 -4 -4 -40 -14 -80 -24 l-73 -17 7
-32 c3 -17 9 -35 14 -39 4 -4 46 2 94 14 51 13 91 18 96 13 5 -5 12 -28 16
-51 l6 -42 -38 -10 c-169 -44 -248 -61 -255 -54 -4 4 -32 106 -62 226 -39 154
-51 219 -43 225 18 12 249 71 271 69 15 -2 22 -13 29 -45z m-367 -281 c51
-118 90 -218 86 -221 -5 -4 -27 -12 -51 -18 -49 -12 -46 -16 -97 112 l-32 78
-29 -118 c-34 -141 -43 -147 -106 -77 -107 119 -120 130 -115 103 3 -14 9 -61
12 -106 l7 -81 -47 -12 c-27 -7 -51 -8 -55 -4 -7 7 -40 389 -40 456 0 48 29
29 145 -97 l110 -119 40 162 c54 218 51 219 172 -58z m823 -236 c0 -34 -1 -35
-40 -35 l-40 0 0 -135 0 -135 -40 0 -40 0 0 135 0 135 -40 0 c-39 0 -40 1 -40
35 l0 35 120 0 120 0 0 -35z m130 -135 l0 -170 -45 0 -45 0 0 170 0 170 45 0
45 0 0 -170z m189 69 l53 -101 17 29 c10 15 35 61 55 101 21 39 45 72 52 72
16 0 16 -3 44 -165 11 -66 23 -133 26 -148 6 -28 5 -28 -38 -25 l-43 3 -10 70
-11 70 -37 -72 c-49 -95 -62 -95 -108 -2 l-34 71 -7 -33 c-4 -19 -10 -51 -13
-71 -6 -36 -7 -38 -45 -38 -22 0 -40 3 -40 8 0 4 12 80 26 170 22 131 30 162
43 162 10 0 36 -38 70 -101z m531 66 l0 -35 -75 0 -75 0 0 -30 0 -30 60 0 60
0 0 -35 0 -35 -60 0 -60 0 0 -35 0 -35 75 0 75 0 0 -35 0 -35 -115 0 -115 0 0
170 0 170 115 0 115 0 0 -35z"/>
<path d="M2063 1901 c-88 -55 -81 -181 12 -225 94 -45 208 50 176 147 -27 81
-121 120 -188 78z"/>
</g>
</svg>
